<svg id="Layer_2" data-name="Layer 2" xmlns="http://www.w3.org/2000/svg" xmlns:xlink="http://www.w3.org/1999/xlink" viewBox="0 0 493 622.72"><defs><style>.cls-1{fill:url(#linear-gradient);}</style><linearGradient id="linear-gradient" x1="86.86" y1="49.77" x2="375.55" y2="549.8" gradientUnits="userSpaceOnUse"><stop offset="0" stop-color="#fff200"/><stop offset="1" stop-color="#5a5500"/></linearGradient></defs><path class="cls-1" d="M350.16,27.92l-14,12,3,11-23,29-14-42,7-8-8-20-13,17,4,10-23,37-25-45,6-11-11-17-11,17,7,11-26,45-22-39,6-9-13-16-9,18,7,8-16,44-24-31,4-10-14-13,5,50,7,7-6,7,4,39,32,4,69-26.28,48.43,18.28h53.57l3-37-6-7,8-8Zm-162,55-8-8,5.72-9,7.28,8Zm52.25-4.61-7.25-8.39,7-9,7.5,9Zm51.75,4.61-6-10,7-7,6,9Zm-53,30.28,44,19.72-57-8,51,20-98-9Zm51.54,20.72h48.15l-6.69,19,43,50-61-39Zm54.66,0,27.8,47,1-34Zm22.8,51,55,24,3,28,41,42-56-42-4-22Zm-334,21,90-55,28,9-23,25Zm441,125,20-29-60,3,30,26-11,34-46,17-25-13,9-32,14-7-70-29,17,35-55-62,28,77-33-28,68,102-79-58,2,75-46-85,5-48-45,41,25-61,26-21,9-54L290.7,223l-28.54-24.06,40,7-19-18.72,57,5.72L292.66,153,99.16,135.92l88.5,32.5-57.5,17.5-99,54,150-32-57,62,17,104,9-75,26,126,4,49-36-71,19,88,66,113-6-156-14,69-7-97-32-87,88,124-10.5,166.72,46.5-65.72,21-68,3,32-7,43,77-81-13-21,34,4-14-17,38,3,19,16-1-30-44-38,46-20,9,16-8,37,23-37-1-20h9l1-30-10,15Zm-250-170,25-8,28,31-18-10,8,18-21.83-13.5,2.33,55.89-31.5-22.39Zm-82,107,69-36,32,9Zm47,3,45-17-53.28,56.5Zm129-35h40l20,7-10,13Zm60,24.39,16.39-4.39,29.61,32Zm-124,10.61,24-19-29,57Zm24,.65-20,76.35,22,17Zm-277,51.35,56-75,91-24Zm22,23,51.5-61.83L31.16,431.2Zm41,70-5,54,60,78Zm7-78-6,56,57,131-5-70,24,75,41,45-53-136-18-154-12,115Z" transform="translate(-2.16 -0.92)"/></svg>