<svg id="Layer_1" data-name="Layer 1" xmlns="http://www.w3.org/2000/svg" viewBox="0 0 797.26 465.93"><defs><style>.cls-1{fill:none;stroke:#fcee21;stroke-miterlimit:10;stroke-width:2px;}</style></defs><path class="cls-1" d="M306,597s167.6-69,346.09-147.79C831.27,370.09,1021.42,281.08,1064,242c37-31,76-86-36-109-121,8-514,108-577,274-8,37,45,65,182,27-13,13-21,21-19,23s57-25,32,9c28-16,45-25,45-21s-14,7-1,15c14-4,46-24,50-17-12,6-24,10-24,14,12-8,28-11,27-7s-35,108-97,122c-4-20,88-109,143-139-7,1-40,20-16,29,26-4,48-17,49-20-3,6-1,6,9,7,10,5,73,19,103-3,30-23,58-46,30-62-32-11-59-21-125,0-12,9-13,17,15,28,29,8,59,14,90,0" transform="translate(-305.62 -131.99)"/></svg>