<?xml version="1.0" encoding="utf-8"?>
<!-- Generator: Adobe Illustrator 25.0.1, SVG Export Plug-In . SVG Version: 6.00 Build 0)  -->
<svg version="1.1" id="Layer_2_1_" xmlns="http://www.w3.org/2000/svg" xmlns:xlink="http://www.w3.org/1999/xlink" x="0px" y="0px"
	 viewBox="0 0 496.1 625.4" style="enable-background:new 0 0 496.1 625.4;" xml:space="preserve">
<style type="text/css">
	.st0{fill:none;stroke:url(#SVGID_1_);stroke-width:2;stroke-miterlimit:10;}
</style>
<linearGradient id="SVGID_1_" gradientUnits="userSpaceOnUse" x1="85.0805" y1="580.4645" x2="376.3695" y2="75.9374" gradientTransform="matrix(1 0 0 -1 0 628)">
	<stop  offset="0" style="stop-color:#231F20"/>
	<stop  offset="1" style="stop-color:#1C1A00"/>
</linearGradient>
<path class="st0" d="M134.2,89.9l6-7l-7-7l-5-50l14,13l-4,10l24,31l16-44l-7-8l9-18l13,16l-6,9l22,39l26-45l-7-11l11-17l11,17l-6,11
	l25,45l23-37l-4-10l13-17l8,20l-7,8l14,42l23-29l-3-11l14-12l-4,45l-8,8l6,7l-3,37h-53.6l-48.4-18.3l-69,26.3l-32-4L134.2,89.9z
	 M180.2,74.9l5.7-9l7.3,8l-5,9L180.2,74.9z M233.2,69.9l7-9l7.5,9l-7.2,8.4L233.2,69.9z M286.2,72.9l7-7l6,9l-7,8L286.2,72.9z
	 M239.2,113.2l44,19.7l-57-8l51,20l-98-9L239.2,113.2z M290.7,133.9h48.1l-6.7,19l43,50l-61-39L290.7,133.9z M345.4,133.9l27.8,47
	l1-34L345.4,133.9z M368.2,184.9l55,24l3,28l41,42l-56-42l-4-22L368.2,184.9z M99.2,135.9L292.7,153l47.5,39.9l-57-5.7l19,18.7
	l-40-7l28.5,24.1l-32.5-9.1l-9,54l-26,21l-25,61l45-41l-5,48l46,85l-2-75l79,58l-68-102l33,28l-28-77l55,62l-17-35l70,29l-14,7
	l-9,32l25,13l46-17l11-34l-30-26l60-3l-20,29l1,31l10-15l-1,30h-9l1,20l-23,37l8-37l-9-16l-46,20l44,38l1,30l-19-16l-38-3l14,17
	l-34-4l13,21l-77,81l7-43l-3-32l-21,68l-46.5,65.7l10.5-166.7l-88-124l32,87l7,97l14-69l6,156l-66-113l-19-88l36,71l-4-49l-26-126
	l-9,75l-17-104l57-62l-150,32l99-54l57.5-17.5L99.2,135.9z M34.2,205.9l90-55l28,9l-23,25L34.2,205.9z M217.2,211.9l8-51l25-8l28,31
	l-18-10l8,18l-21.8-13.5l2.3,55.9L217.2,211.9z M143.2,267.9l69-36l32,9L143.2,267.9z M190.2,270.9l45-17l-53.3,56.5L190.2,270.9z
	 M319.2,235.9h40l20,7l-10,13L319.2,235.9z M379.2,260.3l16.4-4.4l29.6,32L379.2,260.3z M255.2,270.9l24-19l-29,57L255.2,270.9z
	 M279.2,271.6l-20,76.4l22,17L279.2,271.6z M2.2,322.9l56-75l91-24L2.2,322.9z M24.2,345.9l51.5-61.8L31.2,431.2L24.2,345.9z
	 M65.2,415.9l-5,54l60,78L65.2,415.9z M72.2,337.9l-6,56l57,131l-5-70l24,75l41,45l-53-136l-18-154l-12,115L72.2,337.9z"/>
</svg>
