<svg id="Layer_2" data-name="Layer 2" xmlns="http://www.w3.org/2000/svg" xmlns:xlink="http://www.w3.org/1999/xlink" viewBox="0 0 499.29 628.04"><defs><style>.cls-1{fill:none;stroke-miterlimit:10;stroke-width:2px;stroke:url(#linear-gradient);}</style><linearGradient id="linear-gradient" x1="85.05" y1="582.45" x2="376.35" y2="77.89" gradientTransform="matrix(1, 0, 0, -1, 2.16, 630.92)" gradientUnits="userSpaceOnUse"><stop offset="0" stop-color="#f6ec31"/><stop offset="0.55" stop-color="#9e9c26"/><stop offset="0.98" stop-color="#5d621e"/></linearGradient></defs><path class="cls-1" d="M136.32,90.84l6-7-7-7-5-50,14,13-4,10,24,31,16-44-7-8,9-18,13,16-6,9,22,39,26-45-7-11,11-17,11,17-6,11,25,45,23-37-4-10,13-17,8,20-7,8,14,42,23-29-3-11,14-12-4,45-8,8,6,7-3,37H289.75l-48.43-18.28-69,26.28-32-4Zm46-15,5.72-9,7.28,8-5,9Zm53-5,7-9,7.5,9-7.25,8.39Zm53,3,7-7,6,9-7,8Zm-47,40.28,44,19.72-57-8,51,20-98-9Zm51.54,20.72H341l-6.69,19,43,50-61-39Zm54.66,0,27.8,47,1-34Zm22.8,51,55,24,3,28,41,42-56-42-4-22Zm-269-49,193.5,17.08,47.5,39.94-57-5.72,19,18.72-40-7,28.54,24.06-32.54-9.06-9,54-26,21-25,61,45-41-5,48,46,85-2-75,79,58-68-102,33,28-28-77,55,62-17-35,70,29-14,7-9,32,25,13,46-17,11-34-30-26,60-3-20,29,1,31,10-15-1,30h-9l1,20-23,37,8-37-9-16-46,20,44,38,1,30-19-16-38-3,14,17-34-4,13,21-77,81,7-43-3-32-21,68-46.5,65.72,10.5-166.72-88-124,32,87,7,97,14-69,6,156-66-113-19-88,36,71-4-49-26-126-9,75-17-104,57-62-150,32,99-54,57.5-17.5Zm-65,70,90-55,28,9-23,25Zm183,6,8-51,25-8,28,31-18-10,8,18-21.83-13.5,2.33,55.89Zm-74,56,69-36,32,9Zm47,3,45-17L184,311.34Zm129-35h40l20,7-10,13Zm60,24.39,16.39-4.39,29.61,32Zm-124,10.61,24-19-29,57Zm24,.65-20,76.35,22,17Zm-277,51.35,56-75,91-24Zm22,23L77.82,285,33.32,432.12Zm41,70-5,54,60,78Zm7-78-6,56,57,131-5-70,24,75,41,45-53-136-18-154-12,115Z" transform="translate(0 0)"/></svg>