<svg id="Layer_2" data-name="Layer 2" xmlns="http://www.w3.org/2000/svg" viewBox="0 0 496.15 625.37"><defs><style>.cls-1{stroke:#000;stroke-miterlimit:10;}</style></defs><path class="cls-1" d="M796.5,101.5l-14,12,3,11-23,29-14-42,7-8-8-20-13,17,4,10-23,37-25-45,6-11-11-17-11,17,7,11-26,45-22-39,6-9-13-16-9,18,7,8-16,44-24-31,4-10-14-13,5,50,7,7-6,7,4,39,32,4,69-26.28,48.43,18.28H787.5l3-37-6-7,8-8Zm-162,55-8-8,5.72-9,7.28,8Zm52.25-4.61-7.25-8.39,7-9,7.5,9Zm51.75,4.61-6-10,7-7,6,9Z" transform="translate(-446.34 -73.58)"/><polygon class="cls-1" points="239.16 113.2 283.16 132.92 226.16 124.92 277.16 144.92 179.16 135.92 239.16 113.2"/><polygon class="cls-1" points="290.7 133.92 338.85 133.92 332.16 152.92 375.16 202.92 314.16 163.92 290.7 133.92"/><polygon class="cls-1" points="345.36 133.92 373.16 180.92 374.16 146.92 345.36 133.92"/><polygon class="cls-1" points="368.16 184.92 423.16 208.92 426.16 236.92 467.16 278.92 411.16 236.92 407.16 214.92 368.16 184.92"/><polygon class="cls-1" points="34.16 205.92 124.16 150.92 152.16 159.92 129.16 184.92 34.16 205.92"/><path class="cls-1" d="M921.5,404.5l20-29-60,3,30,26-11,34-46,17-25-13,9-32,14-7-70-29,17,35-55-62,28,77-33-28,68,102-79-58,2,75-46-85,5-48-45,41,25-61,26-21,9-54L737,296.56,708.5,272.5l40,7-19-18.72,57,5.72L739,226.56,545.5,209.5,634,242l-57.5,17.5-99,54,150-32-57,62,17,104,9-75,26,126,4,49-36-71,19,88,66,113-6-156-14,69-7-97-32-87,88,124L694,697.22l46.5-65.72,21-68,3,32-7,43,77-81-13-21,34,4-14-17,38,3,19,16-1-30-44-38,46-20,9,16-8,37,23-37-1-20h9l1-30-10,15Zm-250-170,25-8,28,31-18-10,8,18L692.67,252,695,307.89,663.5,285.5Zm-82,107,69-36,32,9Zm47,3,45-17L628.22,384Z" transform="translate(-446.34 -73.58)"/><polygon class="cls-1" points="319.16 235.92 359.14 235.92 379.16 242.92 369.16 255.92 319.16 235.92"/><polygon class="cls-1" points="379.16 260.31 395.55 255.92 425.16 287.92 379.16 260.31"/><polygon class="cls-1" points="255.16 270.92 279.16 251.92 250.16 308.92 255.16 270.92"/><polygon class="cls-1" points="279.16 271.57 259.16 347.92 281.16 364.92 279.16 271.57"/><polygon class="cls-1" points="2.16 322.92 58.16 247.92 149.16 223.92 2.16 322.92"/><polygon class="cls-1" points="24.16 345.92 75.66 284.09 31.16 431.2 24.16 345.92"/><polygon class="cls-1" points="65.16 415.92 60.16 469.92 120.16 547.92 65.16 415.92"/><polygon class="cls-1" points="72.16 337.92 66.16 393.92 123.16 524.92 118.16 454.92 142.16 529.92 183.16 574.92 130.16 438.92 112.16 284.92 100.16 399.92 72.16 337.92"/></svg>